# xmcd CD database file
#
# Track frame offsets:
#	150
#	21548
#	34578
#	49098
#	64615
#	86033
#	102858
#	124888
#	145358
#	169720
#	185148
#	206805
#	229120
#	245358
#	263335
#	282130
#	299770
#
# Disc length: 4218 seconds
#
# Revision: 1
# Processed by: cddbd v1.5.2PL0 Copyright (c) Steve Scherf et al.
# Submitted via: CDex 1.50beta10
#
DISCID=01107811
DTITLE=Kai Martin and STICK! - Vilddjur (genom de tysta åren 1980-85)
DYEAR=1995
DGENRE=New Wave
TTITLE0=Vi Kunde Vara Allt
TTITLE1=Man Skall Vara Som Ett Vilddjur I År
TTITLE2=Paradoxal
TTITLE3=Blått Ljus
TTITLE4=Landskap
TTITLE5=Ursäkter
TTITLE6=Rör, Rör, Rör Dig Nu
TTITLE7=Lust
TTITLE8=Hjärta Av Glas
TTITLE9=Binder Min Tid
TTITLE10=Bara Så Att Du Vet
TTITLE11=Språk
TTITLE12=Den Fria Stilen
TTITLE13=De Nakna and Älskade
TTITLE14=Dans Är Synd
TTITLE15=Silverskrin
TTITLE16=Vad Finns Lämnat Kvar
EXTD=YEAR: 1995
EXTT0=
EXTT1=
EXTT2=
EXTT3=
EXTT4=
EXTT5=
EXTT6=
EXTT7=
EXTT8=
EXTT9=
EXTT10=
EXTT11=
EXTT12=
EXTT13=
EXTT14=
EXTT15=
EXTT16=
PLAYORDER=
